<svg width="20" height="15" viewBox="0 0 20 15" fill="none" xmlns="http://www.w3.org/2000/svg">
<g clip-path="url(#clip0_1_539)">
<path d="M12.8431 0.719727C8.94994 0.719727 5.8531 3.8608 5.8531 7.70973C5.8531 11.6029 8.99419 14.6997 12.8431 14.6997C16.692 14.6997 19.8331 11.5587 19.8331 7.70973C19.8331 3.8608 16.692 0.719727 12.8431 0.719727ZM12.8431 10.3199C11.4274 10.3199 10.2329 9.12542 10.2329 7.70973C10.2329 6.29403 11.4274 5.09953 12.8431 5.09953C14.2588 5.09953 15.4533 6.29403 15.4533 7.70973C15.4091 9.12542 14.2588 10.3199 12.8431 10.3199Z" fill="#8B3FFD"/>
<path d="M5.80854 2.62207V12.7974H3.33107L0.145752 2.62207H5.80854Z" fill="#8B3FFD"/>
</g>
<defs>
<clipPath id="clip0_1_539">
<rect width="19.6885" height="13.98" fill="white" transform="translate(0.145752 0.719727)"/>
</clipPath>
</defs>
</svg>
