<svg width="24" height="15" viewBox="0 0 24 15" fill="none" xmlns="http://www.w3.org/2000/svg">
    <g clip-path="url(#clip0_1_501)">
        <path fill-rule="evenodd" clip-rule="evenodd"
            d="M11.679 12.5489C10.4949 13.547 8.95902 14.1495 7.28069 14.1495C3.53582 14.1495 0.5 11.1498 0.5 7.44951C0.5 3.74921 3.53582 0.749512 7.28069 0.749512C8.95902 0.749512 10.4949 1.35201 11.679 2.35006C12.863 1.35201 14.3989 0.749512 16.0773 0.749512C19.8221 0.749512 22.858 3.74921 22.858 7.44951C22.858 11.1498 19.8221 14.1495 16.0773 14.1495C14.3989 14.1495 12.863 13.547 11.679 12.5489Z"
            fill="#ED0006" />
        <path fill-rule="evenodd" clip-rule="evenodd"
            d="M11.679 12.5489C13.1369 11.32 14.0614 9.49147 14.0614 7.44951C14.0614 5.40756 13.1369 3.57896 11.679 2.35005C12.863 1.35201 14.3989 0.749512 16.0772 0.749512C19.8221 0.749512 22.8579 3.74921 22.8579 7.44951C22.8579 11.1498 19.8221 14.1495 16.0772 14.1495C14.3989 14.1495 12.863 13.547 11.679 12.5489Z"
            fill="#F9A000" />
        <path fill-rule="evenodd" clip-rule="evenodd"
            d="M11.679 12.5489C13.1369 11.32 14.0614 9.49148 14.0614 7.44954C14.0614 5.4076 13.1369 3.579 11.679 2.3501C10.2211 3.579 9.29663 5.4076 9.29663 7.44954C9.29663 9.49148 10.2211 11.32 11.679 12.5489Z"
            fill="#FF5E00" />
    </g>
    <defs>
        <clipPath id="clip0_1_501">
            <rect width="23" height="14" fill="white" transform="translate(0.5 0.719727)" />
        </clipPath>
    </defs>
</svg>