<svg width="25" height="9" viewBox="0 0 25 9" fill="none" xmlns="http://www.w3.org/2000/svg">
  <path fill-rule="evenodd" clip-rule="evenodd" d="M6.2503 8.47798H4.19056L2.646 2.4121C2.57269 2.13307 2.41703 1.8864 2.18806 1.77013C1.61664 1.47796 0.98696 1.24543 0.300049 1.12816V0.894622H3.61813C4.07607 0.894622 4.41953 1.24543 4.47677 1.65286L5.27817 6.02838L7.33691 0.894622H9.33941L6.2503 8.47798ZM10.4843 8.47798H8.53902L10.1408 0.894622H12.0861L10.4843 8.47798ZM14.6028 2.99544C14.66 2.58701 15.0035 2.35347 15.4042 2.35347C16.0338 2.29484 16.7197 2.41211 17.2922 2.70327L17.6356 1.07054C17.0632 0.837001 16.4335 0.719727 15.8621 0.719727C13.9741 0.719727 12.6003 1.77014 12.6003 3.22797C12.6003 4.33701 13.5734 4.91934 14.2603 5.27015C15.0035 5.61994 15.2897 5.85348 15.2324 6.20328C15.2324 6.72798 14.66 6.96151 14.0886 6.96151C13.4017 6.96151 12.7147 6.78661 12.0861 6.49444L11.7426 8.12818C12.4295 8.41935 13.1727 8.53662 13.8596 8.53662C15.9766 8.59424 17.2922 7.54485 17.2922 5.96974C17.2922 3.9862 14.6028 3.86994 14.6028 2.99544ZM24.1 8.47798L22.5555 0.894622H20.8965C20.553 0.894622 20.2095 1.12816 20.0951 1.47796L17.2349 8.47798H19.2374L19.6371 7.36994H22.0976L22.3265 8.47798H24.1ZM21.1827 2.93681L21.7541 5.79485H20.1523L21.1827 2.93681Z" fill="black"/>
</svg>
