<svg width="14" height="15" viewBox="0 0 14 15" fill="none" xmlns="http://www.w3.org/2000/svg">
    <path d="M6.31983 3.71917L4.91132 4.95654L6.14868 6.36506L7.5572 5.12769L6.31983 3.71917Z" fill="#0277BD" />
    <path d="M7.33932 6.1347L5.9308 7.37207L7.16817 8.78059L8.57669 7.54322L7.33932 6.1347Z" fill="#0277BD" />
    <path d="M8.30277 8.5224L6.89426 9.75977L8.13163 11.1683L9.54014 9.93091L8.30277 8.5224Z" fill="#0277BD" />
    <path d="M11.2777 9.76543L10.1836 10.7266L11.1448 11.8206L12.2389 10.8595L11.2777 9.76543Z" fill="#0277BD" />
    <path d="M10.3667 7.65558L9.3015 8.59131L10.2372 9.65646L11.3024 8.72073L10.3667 7.65558Z" fill="#0277BD" />
    <path d="M9.47307 5.44953L8.40791 6.38525L9.34364 7.45041L10.4088 6.51468L9.47307 5.44953Z" fill="#0277BD" />
    <path d="M8.52362 3.38263L7.45847 4.31836L8.39419 5.38351L9.45934 4.44779L8.52362 3.38263Z" fill="#0277BD" />
    <path d="M10.475 3.21497L9.78151 3.82422L10.3908 4.51774L11.0843 3.90849L10.475 3.21497Z" fill="#0277BD" />
    <path d="M11.3548 5.28186L10.6613 5.89111L11.2705 6.58463L11.964 5.97538L11.3548 5.28186Z" fill="#0277BD" />
    <path d="M12.2204 7.34827L11.5269 7.95752L12.1362 8.65104L12.8297 8.04179L12.2204 7.34827Z" fill="#0277BD" />
    <path d="M6.31983 3.71917L4.91132 4.95654L6.14868 6.36506L7.5572 5.12769L6.31983 3.71917Z" fill="#0277BD" />
    <path d="M7.33939 6.1347L5.93088 7.37207L7.16825 8.78059L8.57676 7.54322L7.33939 6.1347Z" fill="#0277BD" />
    <path d="M8.30257 8.5224L6.89406 9.75977L8.13143 11.1683L9.53994 9.93091L8.30257 8.5224Z" fill="#0277BD" />
    <path d="M11.2777 9.76543L10.1836 10.7266L11.1448 11.8206L12.2389 10.8595L11.2777 9.76543Z" fill="#0277BD" />
    <path d="M10.3667 7.65558L9.3015 8.59131L10.2372 9.65646L11.3024 8.72073L10.3667 7.65558Z" fill="#0277BD" />
    <path d="M9.47299 5.44953L8.40784 6.38525L9.34356 7.45041L10.4087 6.51468L9.47299 5.44953Z" fill="#0277BD" />
    <path d="M8.52369 3.38312L7.45854 4.31885L8.39427 5.384L9.45942 4.44827L8.52369 3.38312Z" fill="#0277BD" />
    <path d="M10.475 3.21497L9.78151 3.82422L10.3908 4.51774L11.0843 3.90849L10.475 3.21497Z" fill="#0277BD" />
    <path d="M11.3548 5.28186L10.6613 5.89111L11.2705 6.58463L11.964 5.97538L11.3548 5.28186Z" fill="#0277BD" />
    <path d="M12.2204 7.34778L11.5269 7.95703L12.1361 8.65055L12.8296 8.0413L12.2204 7.34778Z" fill="#0277BD" />
    <path
        d="M9.44213 10.9874L8.06488 12.1972L5.86513 9.69298L6.50505 9.13065L4.90146 7.3054L5.52388 6.75852L3.88238 4.88952L6.38634 2.68948L7.17938 3.59219L8.58988 2.35348L9.35638 3.22615L9.9575 2.69794C9.09009 2.18548 8.08121 1.88623 7 1.88623C3.77826 1.88623 1.16667 4.49781 1.16667 7.71956C1.16667 10.9413 3.77826 13.5529 7 13.5529C8.35976 13.5529 9.6075 13.0839 10.5995 12.304L9.44213 10.9874Z"
        fill="#0277BD" />
</svg>