<svg viewBox="0 0 13 15" fill="none" xmlns="http://www.w3.org/2000/svg">
  <path d="M12.7189 4.94949C12.6628 4.82106 12.5717 4.71083 12.4559 4.63132C12.3401 4.5518 12.2043 4.50616 12.0638 4.49958H8.61513L9.5714 0.945259C9.60186 0.834037 9.60615 0.717319 9.58395 0.604175C9.56175 0.491031 9.51366 0.384508 9.4434 0.292884C9.37325 0.20214 9.28317 0.128601 9.18006 0.0779084C9.07694 0.0272154 8.96354 0.000715034 8.84855 0.000439776H3.57774C3.40774 -0.00535904 3.24079 0.0463308 3.10406 0.147091C2.96733 0.24785 2.86889 0.391744 2.82476 0.555334L0.8068 8.0539C0.776344 8.16512 0.772049 8.28184 0.794249 8.39498C0.81645 8.50813 0.864548 8.61465 0.934805 8.70627C1.00572 8.79803 1.09702 8.87218 1.20152 8.92291C1.30603 8.97365 1.42092 8.9996 1.53718 8.99872H4.45119L3.0883 14.0528C3.04365 14.2157 3.05557 14.3889 3.12212 14.5443C3.18867 14.6997 3.30595 14.8282 3.45497 14.9089C3.60399 14.9896 3.77601 15.0178 3.94316 14.989C4.1103 14.9602 4.26278 14.876 4.37589 14.7501L12.5833 5.75184C12.6811 5.64527 12.7458 5.51288 12.7699 5.37056C12.7939 5.22824 12.7762 5.08204 12.7189 4.94949ZM5.34722 11.4582L6.15291 8.45882C6.18336 8.3476 6.18766 8.23088 6.16546 8.11774C6.14326 8.00459 6.09516 7.89807 6.0249 7.80645C5.95475 7.7157 5.86467 7.64216 5.76156 7.59147C5.65845 7.54078 5.54504 7.51428 5.43005 7.514H2.53863L4.15 1.50015H7.86215L6.90588 5.05447C6.87518 5.16774 6.87159 5.28661 6.89542 5.40151C6.91924 5.51641 6.9698 5.62414 7.04304 5.71604C7.11628 5.80794 7.21015 5.88144 7.3171 5.93063C7.42406 5.97983 7.54111 6.00335 7.65885 5.99929H10.347L5.34722 11.4582Z" fill="white"/>
</svg>
