<svg width="20" height="13" viewBox="0 0 20 13" fill="none" xmlns="http://www.w3.org/2000/svg">
<g clip-path="url(#clip0_113_3651)">
<path fill-rule="evenodd" clip-rule="evenodd" d="M19.7997 6.574C19.6297 6.344 15.5837 0.940002 10.4197 0.940002C5.25471 0.940002 1.20971 6.344 1.03971 6.574C0.961582 6.68004 0.919434 6.80829 0.919434 6.94C0.919434 7.07171 0.961582 7.19997 1.03971 7.306C1.20971 7.536 5.25571 12.94 10.4197 12.94C15.5847 12.94 19.6297 7.536 19.7997 7.306C19.878 7.20003 19.9202 7.07175 19.9202 6.94C19.9202 6.80825 19.878 6.67997 19.7997 6.574ZM10.4197 11.699C6.61471 11.699 3.31971 8.112 2.34371 6.939C3.31771 5.766 6.60671 2.181 10.4197 2.181C14.2247 2.181 17.5197 5.767 18.4957 6.941C17.5207 8.114 14.2327 11.699 10.4197 11.699Z" fill="white"/>
<path fill-rule="evenodd" clip-rule="evenodd" d="M10.4202 3.216C8.34616 3.216 6.66016 4.886 6.66016 6.94C6.66016 8.993 8.34616 10.664 10.4182 10.664C12.4912 10.664 14.1772 8.994 14.1772 6.94C14.1772 4.887 12.4912 3.216 10.4182 3.216H10.4202ZM10.4202 9.423C9.03716 9.423 7.91316 8.309 7.91316 6.94C7.91316 5.571 9.03716 4.457 10.4182 4.457C11.8002 4.457 12.9242 5.571 12.9242 6.94C12.9242 8.309 11.8002 9.423 10.4182 9.423H10.4202Z" fill="white"/>
</g>
<defs>
<clipPath id="clip0_113_3651">
<rect width="19" height="12" fill="white" transform="translate(0.919922 0.940002)"/>
</clipPath>
</defs>
</svg>
