<?xml version="1.0"?>
<svg width="60" height="60" xmlns="http://www.w3.org/2000/svg" xmlns:svg="http://www.w3.org/2000/svg">
 <defs>
  <clipPath id="clip0_1_629">
   <rect fill="white" height="30" id="svg_1" transform="translate(15 15)" width="30"/>
  </clipPath>
  <clipPath id="clip1_1_629">
   <rect fill="white" height="30" id="svg_2" transform="translate(15 15)" width="30"/>
  </clipPath>
 </defs>
 <g class="layer">
  <title>Layer 1</title>
  <rect fill="none" height="60" id="svg_3" rx="30" width="60"/>
  <g clip-path="url(#clip0_1_629)" id="svg_4">
   <g clip-path="url(#clip1_1_629)" id="svg_5">
    <path clip-rule="evenodd" d="m30,15c-8.29,0 -15,6.71 -15,15c0,2.63 0.69,5.2 1.99,7.47l-1.93,6c-0.07,0.2 -0.08,0.42 -0.03,0.63c0.05,0.21 0.16,0.4 0.31,0.56c0.16,0.15 0.35,0.26 0.56,0.31c0.21,0.05 0.42,0.04 0.63,-0.03l6,-1.93c2.27,1.31 4.85,1.99 7.47,1.99c8.29,0 15,-6.71 15,-15c0,-8.29 -6.71,-15 -15,-15zm0,27.66c-2.37,0 -4.69,-0.67 -6.7,-1.92c-0.14,-0.09 -0.31,-0.15 -0.48,-0.17c-0.17,-0.02 -0.34,-0.01 -0.5,0.05l-4.33,1.39l1.39,-4.33c0.06,-0.16 0.07,-0.33 0.05,-0.5c-0.02,-0.17 -0.08,-0.34 -0.17,-0.48c-1.25,-2.01 -1.92,-4.33 -1.92,-6.7c0,-6.98 5.68,-12.66 12.66,-12.66c6.98,0 12.66,5.68 12.66,12.66c0,6.98 -5.68,12.66 -12.66,12.66zm1.46,-12.66c0,0.39 -0.15,0.76 -0.42,1.04c-0.28,0.27 -0.65,0.42 -1.04,0.42c-0.39,0 -0.76,-0.15 -1.04,-0.42c-0.27,-0.28 -0.42,-0.65 -0.42,-1.04c0,-0.39 0.15,-0.76 0.42,-1.04c0.28,-0.27 0.65,-0.42 1.04,-0.42c0.39,0 0.76,0.15 1.04,0.42c0.27,0.28 0.42,0.65 0.42,1.04zm5.87,0c0,0.39 -0.16,0.76 -0.43,1.04c-0.28,0.27 -0.65,0.42 -1.04,0.42c-0.39,0 -0.76,-0.15 -1.04,-0.42c-0.27,-0.28 -0.42,-0.65 -0.42,-1.04c0,-0.39 0.15,-0.76 0.42,-1.04c0.28,-0.27 0.65,-0.42 1.04,-0.42c0.39,0 0.76,0.15 1.04,0.42c0.27,0.28 0.43,0.65 0.43,1.04zm-11.72,0c0,0.39 -0.16,0.76 -0.43,1.04c-0.28,0.27 -0.65,0.42 -1.04,0.42c-0.39,0 -0.76,-0.15 -1.04,-0.42c-0.27,-0.28 -0.42,-0.65 -0.42,-1.04c0,-0.39 0.15,-0.76 0.42,-1.04c0.28,-0.27 0.65,-0.42 1.04,-0.42c0.39,0 0.76,0.15 1.04,0.42c0.27,0.28 0.43,0.65 0.43,1.04z" fill="white" fill-rule="evenodd" id="svg_6"/>
   </g>
  </g>
 </g>
</svg>