<svg viewBox="0 0 30 30" fill="none" xmlns="http://www.w3.org/2000/svg">
  <path fill-rule="evenodd" clip-rule="evenodd" d="M15 0C6.71002 0 2.38147e-05 6.709 2.38147e-05 15C2.38147e-05 17.631 0.686024 20.2 1.99002 22.467L0.0560238 28.469C-0.00977782 28.6741 -0.0177812 28.8934 0.0328928 29.1027C0.0835668 29.3121 0.190958 29.5034 0.343271 29.6558C0.495584 29.8081 0.686927 29.9155 0.896285 29.9661C1.10564 30.0168 1.32492 30.0088 1.53002 29.943L7.53202 28.011C9.80429 29.3164 12.3795 30.0023 15 30C23.29 30 30 23.291 30 15C30 6.71 23.291 0 15 0ZM15 27.656C12.631 27.6585 10.3092 26.9942 8.30002 25.739C8.15537 25.6486 7.99274 25.5909 7.82349 25.5698C7.65423 25.5488 7.48242 25.5649 7.32002 25.617L2.98802 27.012L4.38302 22.68C4.43516 22.5176 4.45125 22.3458 4.43018 22.1765C4.40911 22.0073 4.35139 21.8447 4.26102 21.7C3.00589 19.6908 2.34156 17.369 2.34402 15C2.34402 8.021 8.02002 2.344 15 2.344C21.979 2.344 27.656 8.021 27.656 15C27.656 21.979 21.979 27.656 15 27.656ZM16.465 15C16.465 15.3885 16.3107 15.7612 16.0359 16.0359C15.7612 16.3107 15.3886 16.465 15 16.465C14.6115 16.465 14.2389 16.3107 13.9641 16.0359C13.6894 15.7612 13.535 15.3885 13.535 15C13.535 14.6115 13.6894 14.2388 13.9641 13.9641C14.2389 13.6893 14.6115 13.535 15 13.535C15.3886 13.535 15.7612 13.6893 16.0359 13.9641C16.3107 14.2388 16.465 14.6115 16.465 15ZM22.325 15C22.325 15.3885 22.1707 15.7612 21.8959 16.0359C21.6212 16.3107 21.2486 16.465 20.86 16.465C20.4715 16.465 20.0989 16.3107 19.8241 16.0359C19.5494 15.7612 19.395 15.3885 19.395 15C19.395 14.6115 19.5494 14.2388 19.8241 13.9641C20.0989 13.6893 20.4715 13.535 20.86 13.535C21.2486 13.535 21.6212 13.6893 21.8959 13.9641C22.1707 14.2388 22.325 14.6115 22.325 15ZM10.605 15C10.605 15.3885 10.4507 15.7612 10.1759 16.0359C9.90119 16.3107 9.52857 16.465 9.14002 16.465C8.75148 16.465 8.37885 16.3107 8.10411 16.0359C7.82937 15.7612 7.67502 15.3885 7.67502 15C7.67502 14.6115 7.82937 14.2388 8.10411 13.9641C8.37885 13.6893 8.75148 13.535 9.14002 13.535C9.52857 13.535 9.90119 13.6893 10.1759 13.9641C10.4507 14.2388 10.605 14.6115 10.605 15Z" fill="white"/>
</svg>
