<!-- icon666.com - MILLIONS vector ICONS FREE --><svg id="Layer_1" enable-background="new 0 0 512 512" viewBox="0 0 512 512" xmlns="http://www.w3.org/2000/svg"><g clip-rule="evenodd" fill-rule="evenodd"><ellipse cx="256" cy="255.998" fill="#ffea92" rx="255.998" ry="256.001" transform="matrix(1 -.008 .008 1 -2.142 2.16)" style="fill: rgb(84, 170, 255);"></ellipse><path d="m235.224 511.153c6.855.553 13.781.846 20.777.846 141.136 0 255.998-114.84 255.998-256.001 0-6.996-.293-13.923-.847-20.779l-95.45-95.45c-1.835-2.223-4.611-3.641-7.715-3.641h-303.97c-5.519 0-10 4.481-10 10v219.74c0 3.105 1.418 5.882 3.641 7.717z" fill="#f7d854" style="fill: rgb(84, 170, 255);"></path><path d="m397.985 343.469-97.55-87.471 97.55-87.469zm-267.837 12.399h251.705l-96.371-86.439-22.784 20.449c-1.934 1.701-4.293 2.561-6.698 2.561-2.406 0-4.764-.86-6.698-2.561l-22.784-20.449zm-16.133-187.339 97.502 87.469-97.502 87.471zm267.838-12.401h-251.705l125.852 112.871zm26.132-20h-303.97c-5.519 0-10 4.481-10 10v219.74c0 5.521 4.481 10.002 10 10.002h303.97c5.519 0 10-4.481 10-10.002v-219.74c.001-5.519-4.481-10-10-10z" fill="#fefefe"></path></g></svg>
