<svg width="22" height="20" viewBox="0 0 22 20" fill="none" xmlns="http://www.w3.org/2000/svg">
  <path fill-rule="evenodd" clip-rule="evenodd" d="M13.253 10.28C13.253 12.59 15.065 14.471 17.292 14.471C17.8262 14.4706 18.3548 14.3615 18.8457 14.1504C19.3365 13.9393 19.7792 13.6306 20.147 13.243C20.9116 12.4467 21.3359 11.3839 21.33 10.28C21.3302 10.1287 21.2905 9.98007 21.215 9.849L18.68 5.464C18.8287 5.39721 18.9549 5.28856 19.043 5.15129C19.131 5.01403 19.1772 4.85409 19.176 4.691C19.176 4.228 18.815 3.853 18.368 3.853H11.638V1.338C11.638 0.875 11.276 0.5 10.83 0.5C10.384 0.5 10.022 0.875 10.022 1.338V3.853H3.29196C2.84596 3.853 2.48396 4.228 2.48396 4.691C2.48266 4.85409 2.52888 5.01403 2.61695 5.15129C2.70503 5.28856 2.83116 5.39721 2.97996 5.464L0.444956 9.85C0.369595 9.98078 0.329937 10.1291 0.329956 10.28C0.329956 12.592 2.14196 14.472 4.36796 14.472C6.59496 14.472 8.40696 12.592 8.40696 10.281C8.4071 10.1297 8.36744 9.98109 8.29196 9.85L5.79496 5.53H10.022V17.824H3.82996C3.38396 17.824 3.02196 18.2 3.02196 18.663C3.02196 19.126 3.38396 19.501 3.82996 19.501H17.83C18.276 19.501 18.638 19.126 18.638 18.663C18.638 18.2 18.276 17.825 17.83 17.825H11.638V5.528H15.865L13.368 9.848C13.2926 9.97879 13.253 10.1271 13.253 10.278V10.28ZM4.36796 12.795C3.31596 12.795 2.41796 12.094 2.08496 11.118H6.65196C6.31896 12.094 5.42196 12.795 4.36796 12.795ZM6.17296 9.442H2.56396L4.36796 6.32L6.17296 9.442ZM17.292 6.32L19.096 9.442H15.487L17.292 6.32ZM19.576 11.118C19.242 12.094 18.345 12.795 17.292 12.795C16.239 12.795 15.341 12.094 15.008 11.118H19.576Z" />
</svg>
