<svg width="80" height="70" xmlns="http://www.w3.org/2000/svg">

  <path id="svg_1" fill="white" d="m54,18.1111l2.8,0l0,2.7778c0,0.7367 0.295,1.4432 0.8201,1.9642c0.5251,0.5209 1.2373,0.8136 1.9799,0.8136c0.7426,0 1.4548,-0.2927 1.9799,-0.8136c0.5251,-0.521 0.8201,-1.2275 0.8201,-1.9642l0,-2.7778l2.8,0c0.7426,0 1.4548,-0.2926 1.9799,-0.8136c0.5251,-0.52092 0.8201,-1.22745 0.8201,-1.96417c0,-0.73671 -0.295,-1.44325 -0.8201,-1.96418c-0.5251,-0.52094 -1.2373,-0.81359 -1.9799,-0.81359l-2.8,0l0,-2.77778c0,-0.73671 -0.295,-1.44325 -0.8201,-1.96419c-0.5251,-0.52093 -1.2373,-0.81359 -1.9799,-0.81359c-0.7426,0 -1.4548,0.29266 -1.9799,0.81359c-0.5251,0.52094 -0.8201,1.22748 -0.8201,1.96419l0,2.77778l-2.8,0c-0.7426,0 -1.4548,0.29265 -1.9799,0.81359c-0.5251,0.52093 -0.8201,1.22747 -0.8201,1.96418c0,0.73672 0.295,1.44325 0.8201,1.96417c0.5251,0.521 1.2373,0.8136 1.9799,0.8136zm11.2,11.1111c-0.7426,0 -1.4548,0.2927 -1.9799,0.8136c-0.5251,0.5209 -0.8201,1.2275 -0.8201,1.9642l0,16.6667c0,0.7367 -0.295,1.4432 -0.8201,1.9642c-0.5251,0.5209 -1.2373,0.8135 -1.9799,0.8135l-39.2,0c-0.74261,0 -1.4548,-0.2926 -1.9799,-0.8135c-0.5251,-0.521 -0.8201,-1.2275 -0.8201,-1.9642l0,-26.6389l16.464,16.3611c1.575,1.5605 3.71,2.4371 5.936,2.4371c2.226,0 4.361,-0.8766 5.936,-2.4371l6.916,-6.8611c0.5272,-0.5231 0.8235,-1.2325 0.8235,-1.9722c0,-0.7398 -0.2963,-1.4492 -0.8235,-1.9723c-0.5273,-0.523 -1.2424,-0.8169 -1.988,-0.8169c-0.7456,0 -1.4607,0.2939 -1.988,0.8169l-6.916,6.8611c-0.5234,0.509 -1.2271,0.7941 -1.96,0.7941c-0.7329,0 -1.4366,-0.2851 -1.96,-0.7941l-16.492,-16.3333l21.252,0c0.7426,0 1.4548,-0.2926 1.9799,-0.8136c0.5251,-0.52092 0.8201,-1.22745 0.8201,-1.96417c0,-0.73671 -0.295,-1.44325 -0.8201,-1.96418c-0.5251,-0.52094 -1.2373,-0.81359 -1.9799,-0.81359l-22.4,0c-2.22782,0 -4.36439,0.87797 -5.9397,2.44077c-1.5753,1.56281 -2.4603,3.68247 -2.4603,5.89257l0,27.7778c0,2.2101 0.885,4.3297 2.4603,5.8925c1.57531,1.5628 3.71188,2.4408 5.9397,2.4408l39.2,0c2.2278,0 4.3644,-0.878 5.9397,-2.4408c1.5753,-1.5628 2.4603,-3.6824 2.4603,-5.8925l0,-16.6667c0,-0.7367 -0.295,-1.4433 -0.8201,-1.9642c-0.5251,-0.5209 -1.2373,-0.8136 -1.9799,-0.8136z"/>

</svg>
