<svg width="25" height="25" viewBox="0 0 20 25" fill="none" xmlns="http://www.w3.org/2000/svg">
  <path d="M6.25 10H7.5C7.83152 10 8.14946 9.8683 8.38388 9.63388C8.6183 9.39946 8.75 9.08152 8.75 8.75C8.75 8.41848 8.6183 8.10054 8.38388 7.86612C8.14946 7.6317 7.83152 7.5 7.5 7.5H6.25C5.91848 7.5 5.60054 7.6317 5.36612 7.86612C5.1317 8.10054 5 8.41848 5 8.75C5 9.08152 5.1317 9.39946 5.36612 9.63388C5.60054 9.8683 5.91848 10 6.25 10ZM6.25 12.5C5.91848 12.5 5.60054 12.6317 5.36612 12.8661C5.1317 13.1005 5 13.4185 5 13.75C5 14.0815 5.1317 14.3995 5.36612 14.6339C5.60054 14.8683 5.91848 15 6.25 15H13.75C14.0815 15 14.3995 14.8683 14.6339 14.6339C14.8683 14.3995 15 14.0815 15 13.75C15 13.4185 14.8683 13.1005 14.6339 12.8661C14.3995 12.6317 14.0815 12.5 13.75 12.5H6.25ZM20 8.675C19.987 8.56017 19.9618 8.44704 19.925 8.3375V8.225C19.8649 8.09647 19.7847 7.97833 19.6875 7.875L12.1875 0.375C12.0842 0.27777 11.966 0.197601 11.8375 0.1375C11.8002 0.1322 11.7623 0.1322 11.725 0.1375C11.598 0.0646766 11.4578 0.0179303 11.3125 0H3.75C2.75544 0 1.80161 0.395088 1.09835 1.09835C0.395088 1.80161 0 2.75544 0 3.75V21.25C0 22.2446 0.395088 23.1984 1.09835 23.9017C1.80161 24.6049 2.75544 25 3.75 25H16.25C17.2446 25 18.1984 24.6049 18.9017 23.9017C19.6049 23.1984 20 22.2446 20 21.25V8.75C20 8.75 20 8.75 20 8.675ZM12.5 4.2625L15.7375 7.5H13.75C13.4185 7.5 13.1005 7.3683 12.8661 7.13388C12.6317 6.89946 12.5 6.58152 12.5 6.25V4.2625ZM17.5 21.25C17.5 21.5815 17.3683 21.8995 17.1339 22.1339C16.8995 22.3683 16.5815 22.5 16.25 22.5H3.75C3.41848 22.5 3.10054 22.3683 2.86612 22.1339C2.6317 21.8995 2.5 21.5815 2.5 21.25V3.75C2.5 3.41848 2.6317 3.10054 2.86612 2.86612C3.10054 2.6317 3.41848 2.5 3.75 2.5H10V6.25C10 7.24456 10.3951 8.19839 11.0983 8.90165C11.8016 9.60491 12.7554 10 13.75 10H17.5V21.25ZM13.75 17.5H6.25C5.91848 17.5 5.60054 17.6317 5.36612 17.8661C5.1317 18.1005 5 18.4185 5 18.75C5 19.0815 5.1317 19.3995 5.36612 19.6339C5.60054 19.8683 5.91848 20 6.25 20H13.75C14.0815 20 14.3995 19.8683 14.6339 19.6339C14.8683 19.3995 15 19.0815 15 18.75C15 18.4185 14.8683 18.1005 14.6339 17.8661C14.3995 17.6317 14.0815 17.5 13.75 17.5Z" fill="currentColor"></path>
</svg>
