<svg width="21" height="22" viewBox="0 0 21 22" fill="none" xmlns="http://www.w3.org/2000/svg">
<path fill-rule="evenodd" clip-rule="evenodd" d="M9.68098 5.32899L0.335981 15.1182C0.118155 15.3479 -0.00226784 15.653 -1.90735e-05 15.9695C-1.90735e-05 16.2926 0.119518 16.5931 0.335981 16.8208L1.02413 17.5413C1.12835 17.652 1.25413 17.7403 1.39373 17.8006C1.53332 17.861 1.68379 17.8921 1.83587 17.8921C1.98794 17.8921 2.1384 17.861 2.278 17.8006C2.4176 17.7403 2.54338 17.652 2.6476 17.5413L10.4951 9.32061L18.3524 17.5494C18.4566 17.6601 18.5824 17.7484 18.722 17.8087C18.8616 17.869 19.012 17.9001 19.1641 17.9001C19.3162 17.9001 19.4666 17.869 19.6062 17.8087C19.7458 17.7484 19.8716 17.6601 19.9758 17.5494L20.664 16.8289C20.8814 16.5996 21.0018 16.2952 21 15.9792C21 15.6578 20.8804 15.3557 20.664 15.1295L11.3109 5.33061C11.2065 5.21879 11.0802 5.12964 10.9398 5.06868C10.7995 5.00773 10.6481 4.97628 10.4951 4.97628C10.3421 4.97628 10.1908 5.00773 10.0504 5.06868C9.9101 5.12964 9.7838 5.21879 9.67936 5.33061L9.68098 5.32899Z" fill="#343434"/>
</svg>
