<svg width="21" height="21" viewBox="0 0 21 21" fill="none" xmlns="http://www.w3.org/2000/svg">
  <path fill-rule="evenodd" clip-rule="evenodd" d="M12.828 16.123C13.094 16.123 13.349 16.018 13.538 15.831C13.6309 15.7386 13.7046 15.6288 13.7549 15.5078C13.8052 15.3868 13.831 15.257 13.831 15.126V13.133C13.8309 13.0019 13.8049 12.8721 13.7545 12.7511C13.704 12.6301 13.6301 12.5203 13.537 12.428C13.3483 12.2404 13.093 12.1351 12.827 12.1351C12.5609 12.1351 12.3056 12.2404 12.117 12.428C12.024 12.5204 11.9503 12.6302 11.9 12.7512C11.8497 12.8722 11.8239 13.002 11.824 13.133V15.126C11.824 15.391 11.93 15.644 12.118 15.831C12.306 16.018 12.561 16.123 12.828 16.123ZM8.81295 16.123C9.07895 16.123 9.33495 16.018 9.52295 15.831C9.61607 15.7387 9.68999 15.6289 9.74045 15.5079C9.79091 15.3869 9.81691 15.2571 9.81695 15.126V13.133C9.81691 13.0019 9.79091 12.8721 9.74045 12.7511C9.68999 12.6301 9.61607 12.5203 9.52295 12.428C9.33427 12.2404 9.07902 12.1351 8.81295 12.1351C8.54689 12.1351 8.29163 12.2404 8.10295 12.428C8.00983 12.5203 7.93591 12.6301 7.88545 12.7511C7.83499 12.8721 7.80899 13.0019 7.80895 13.133V15.126C7.80895 15.391 7.91495 15.644 8.10295 15.831C8.29195 16.018 8.54695 16.123 8.81295 16.123ZM17.846 4.163H16.46L14.724 0.722003C14.6708 0.595253 14.5921 0.480867 14.4926 0.386041C14.3931 0.291214 14.2751 0.218 14.146 0.171003C13.9509 0.0997065 13.7387 0.0902559 13.5381 0.143938C13.3375 0.197621 13.1583 0.311827 13.025 0.471003C12.893 0.629826 12.8138 0.825753 12.7982 1.03163C12.7826 1.2375 12.8315 1.44313 12.938 1.62L14.212 4.161H7.42895L8.70395 1.62C8.80182 1.38738 8.80716 1.12617 8.71887 0.889742C8.63059 0.653318 8.45534 0.459537 8.22895 0.348003C8.00276 0.234923 7.74238 0.21081 7.49926 0.280429C7.25615 0.350048 7.048 0.508334 6.91595 0.724003L5.17995 4.162H3.79495C3.08495 4.173 2.40295 4.432 1.86695 4.894C1.33138 5.35338 0.976653 5.98826 0.866183 6.68516C0.755713 7.38205 0.896705 8.09552 1.26395 8.698C1.63209 9.30217 2.20147 9.75717 2.87195 9.983L3.61395 17.419C3.68895 18.159 4.03895 18.845 4.59595 19.342C5.15295 19.84 5.87595 20.114 6.62595 20.11H15.036C15.784 20.1139 16.5069 19.8402 17.065 19.342C17.6206 18.846 17.9705 18.16 18.046 17.419L18.789 9.983C19.461 9.75632 20.0312 9.29941 20.399 8.693C20.7657 8.08857 20.905 7.37323 20.7919 6.67534C20.6789 5.97746 20.3208 5.34271 19.782 4.885C19.2416 4.42405 18.5562 4.16909 17.846 4.163ZM16.029 17.219C16.0041 17.4664 15.8874 17.6954 15.702 17.861C15.5157 18.0269 15.2744 18.1178 15.025 18.116H6.61495C6.36495 18.118 6.12495 18.026 5.93895 17.861C5.7535 17.6954 5.63683 17.4664 5.61195 17.219L4.89895 10.143H16.742L16.029 17.219ZM17.846 8.149H3.79495C3.52895 8.149 3.27395 8.044 3.08495 7.857C2.99189 7.76469 2.91802 7.65487 2.86762 7.53387C2.81721 7.41287 2.79125 7.28308 2.79125 7.152C2.79125 7.02092 2.81721 6.89114 2.86762 6.77014C2.91802 6.64914 2.99189 6.53931 3.08495 6.447C3.27395 6.261 3.52895 6.156 3.79495 6.156H17.845C18.112 6.156 18.367 6.261 18.555 6.448C18.648 6.54031 18.7219 6.65014 18.7723 6.77114C18.8227 6.89214 18.8486 7.02192 18.8486 7.153C18.8486 7.28408 18.8227 7.41387 18.7723 7.53487C18.7219 7.65587 18.648 7.76569 18.555 7.858C18.366 8.0449 18.1107 8.14951 17.845 8.149H17.846Z" fill="white"/>
</svg>
