<svg width="20" height="20" viewBox="0 0 20 20" fill="none" xmlns="http://www.w3.org/2000/svg">
  <path fill-rule="evenodd" clip-rule="evenodd" d="M9.99984 0C8.05744 0.00409262 6.15807 0.57238 4.53261 1.63578C2.90716 2.69918 1.62564 4.21188 0.843837 5.99C0.0632371 7.76791 -0.18298 9.73459 0.13523 11.6501C0.45344 13.5655 1.32232 15.347 2.63584 16.777C3.57422 17.7936 4.71299 18.6048 5.9804 19.1595C7.2478 19.7142 8.61636 20.0004 9.99984 20C11.3832 19.9999 12.7516 19.7135 14.019 19.1588C15.2863 18.6041 16.4252 17.7932 17.3638 16.777C18.3458 15.7075 19.0833 14.437 19.525 13.0539C19.9667 11.6707 20.1021 10.208 19.9218 8.7673C19.7415 7.32657 19.2498 5.94234 18.4808 4.71071C17.7119 3.47908 16.6841 2.42956 15.4688 1.635C13.8428 0.5716 11.9427 0.00357489 9.99984 0ZM16.9228 14.014C16.0273 12.4841 14.6497 11.2944 13.0058 10.631C13.5159 10.0529 13.8482 9.33986 13.9628 8.57751C14.0775 7.81515 13.9696 7.0359 13.6522 6.33336C13.3348 5.63081 12.8213 5.03484 12.1734 4.61703C11.5255 4.19921 10.7708 3.97732 9.99984 3.978C9.22878 3.97809 8.47411 4.20047 7.82621 4.61851C7.17832 5.03654 6.66468 5.63251 6.34684 6.335C6.02946 7.03732 5.92169 7.81636 6.03646 8.57846C6.15124 9.34057 6.48369 10.0533 6.99384 10.631C5.3499 11.2943 3.97235 12.4841 3.07684 14.014C2.36353 12.8001 1.9866 11.418 1.98484 10.01C1.98484 7.886 2.82884 5.85 4.33184 4.348C5.8355 2.84555 7.87419 2.00158 9.99984 2.00158C12.1255 2.00158 14.1642 2.84555 15.6678 4.348C16.4118 5.0913 17.0021 5.97393 17.4048 6.94545C17.8075 7.91696 18.0148 8.95832 18.0148 10.01C18.0133 11.4183 17.6363 12.8008 16.9228 14.015V14.014Z" fill="white"/>
</svg>
