<svg viewBox="0 0 22 20" fill="none" xmlns="http://www.w3.org/2000/svg">
  <path fill-rule="evenodd" clip-rule="evenodd" d="M13.2531 10.28C13.2531 12.59 15.0651 14.471 17.2921 14.471C17.8264 14.4706 18.355 14.3615 18.8458 14.1504C19.3366 13.9393 19.7793 13.6306 20.1471 13.243C20.9117 12.4467 21.336 11.3839 21.3301 10.28C21.3303 10.1287 21.2906 9.98007 21.2151 9.849L18.6801 5.464C18.8289 5.39721 18.955 5.28856 19.0431 5.15129C19.1312 5.01403 19.1774 4.85409 19.1761 4.691C19.1761 4.228 18.8151 3.853 18.3681 3.853H11.6381V1.338C11.6381 0.875 11.2761 0.5 10.8301 0.5C10.3841 0.5 10.0221 0.875 10.0221 1.338V3.853H3.29208C2.84608 3.853 2.48408 4.228 2.48408 4.691C2.48279 4.85409 2.529 5.01403 2.61708 5.15129C2.70515 5.28856 2.83129 5.39721 2.98008 5.464L0.445078 9.85C0.369717 9.98078 0.330059 10.1291 0.330078 10.28C0.330078 12.592 2.14208 14.472 4.36808 14.472C6.59508 14.472 8.40708 12.592 8.40708 10.281C8.40723 10.1297 8.36756 9.98109 8.29208 9.85L5.79508 5.53H10.0221V17.824H3.83008C3.38408 17.824 3.02208 18.2 3.02208 18.663C3.02208 19.126 3.38408 19.501 3.83008 19.501H17.8301C18.2761 19.501 18.6381 19.126 18.6381 18.663C18.6381 18.2 18.2761 17.825 17.8301 17.825H11.6381V5.528H15.8651L13.3681 9.848C13.2928 9.97879 13.2531 10.1271 13.2531 10.278V10.28ZM4.36808 12.795C3.31608 12.795 2.41808 12.094 2.08508 11.118H6.65208C6.31908 12.094 5.42208 12.795 4.36808 12.795ZM6.17308 9.442H2.56408L4.36808 6.32L6.17308 9.442ZM17.2921 6.32L19.0961 9.442H15.4871L17.2921 6.32ZM19.5761 11.118C19.2421 12.094 18.3451 12.795 17.2921 12.795C16.2391 12.795 15.3411 12.094 15.0081 11.118H19.5761Z" fill="white"/>
</svg>
