<svg viewBox="0 0 22 23" fill="none" xmlns="http://www.w3.org/2000/svg">
<path fill-rule="evenodd" clip-rule="evenodd" d="M13.8415 6.17404L2.89154 9.82204C2.45993 9.96658 2.08346 10.2408 1.81351 10.6073C1.54356 10.9738 1.39329 11.4146 1.38323 11.8697C1.37317 12.3248 1.50379 12.7718 1.75728 13.1499C2.01076 13.5279 2.37474 13.8185 2.79954 13.982L6.85054 15.532C6.94665 15.5712 7.03399 15.6292 7.10747 15.7025C7.18096 15.7758 7.23911 15.863 7.27854 15.959L8.82854 20.011C8.96108 20.3547 9.17726 20.6598 9.45749 20.8988C9.73773 21.1378 10.0732 21.3032 10.4334 21.3798C10.7937 21.4565 11.1673 21.442 11.5206 21.3378C11.8739 21.2336 12.1956 21.0429 12.4565 20.783C12.6985 20.537 12.8815 20.239 12.9935 19.913L16.6415 8.96304C16.7701 8.57386 16.788 8.15662 16.6933 7.75786C16.5986 7.35909 16.3949 6.99449 16.105 6.70473C15.8152 6.41497 15.4505 6.21143 15.0517 6.11684C14.6529 6.02225 14.2357 6.04032 13.8465 6.16904L13.8415 6.17404ZM15.2385 8.50003L11.5905 19.448C11.5407 19.5898 11.4488 19.713 11.3269 19.8011C11.2051 19.8891 11.0593 19.9378 10.9091 19.9406C10.7588 19.9435 10.6113 19.9003 10.4862 19.8169C10.3612 19.7335 10.2647 19.6139 10.2095 19.474L8.65454 15.428C8.63329 15.3743 8.60892 15.3219 8.58154 15.271L12.1735 11.679C12.3117 11.5407 12.3893 11.3532 12.3892 11.1577C12.3891 10.9622 12.3113 10.7747 12.173 10.6365C12.0347 10.4984 11.8472 10.4208 11.6517 10.4209C11.4562 10.421 11.2687 10.4987 11.1305 10.637L7.53954 14.228C7.489 14.2007 7.43691 14.1763 7.38354 14.155L3.33654 12.601C3.19682 12.5457 3.07732 12.449 2.99403 12.3239C2.91074 12.1988 2.86763 12.0513 2.87046 11.901C2.87328 11.7508 2.92192 11.605 3.00985 11.4831C3.09779 11.3612 3.22083 11.2691 3.36254 11.219L14.3125 7.57103C14.4417 7.5298 14.5797 7.52494 14.7115 7.55701C14.8432 7.58907 14.9636 7.65681 15.0594 7.7528C15.1552 7.84878 15.2226 7.96929 15.2544 8.10111C15.2862 8.23293 15.2801 8.37095 15.2385 8.50003Z" fill="white"/>
</svg>
