<svg width="26" height="8" viewBox="0 0 26 8" fill="none" xmlns="http://www.w3.org/2000/svg">
<g clip-path="url(#clip0_1_508)">
<path fill-rule="evenodd" clip-rule="evenodd" d="M23.07 -0.000488281H18.141C18.406 1.64251 19.996 3.17951 21.745 3.17951H25.667C25.72 3.02051 25.72 2.80851 25.72 2.64951C25.72 1.16551 24.554 -0.000488281 23.07 -0.000488281Z" fill="url(#paint0_linear_1_508)"/>
<path fill-rule="evenodd" clip-rule="evenodd" d="M18.565 3.44434V7.41934H20.95V5.29934H23.07C24.236 5.29934 25.243 4.50434 25.561 3.44434H18.565Z" fill="#4DB45F"/>
<path fill-rule="evenodd" clip-rule="evenodd" d="M10.085 -0.000488281V7.41951H12.205C12.205 7.41951 12.735 7.41951 13 6.88951C14.431 4.02751 14.855 3.17951 14.855 3.17951H15.12V7.41951H17.505V-0.000488281H15.385C15.385 -0.000488281 14.855 0.0525117 14.59 0.529512C13.371 2.96751 12.735 4.23951 12.735 4.23951H12.47V-0.000488281H10.085Z" fill="#4DB45F"/>
<path fill-rule="evenodd" clip-rule="evenodd" d="M0.0150146 7.41951V-0.000488281H2.40001C2.40001 -0.000488281 3.08901 -0.000488281 3.46001 1.05951C4.41401 3.86851 4.52001 4.23951 4.52001 4.23951C4.52001 4.23951 4.73202 3.55051 5.58002 1.05951C5.95101 -0.000488281 6.64002 -0.000488281 6.64002 -0.000488281H9.02501V7.41951H6.64002V3.44451H6.37502L5.05001 7.41951H3.99001L2.66501 3.44451H2.40001V7.41951H0.0150146Z" fill="#4DB45F"/>
</g>
<defs>
<linearGradient id="paint0_linear_1_508" x1="18.1273" y1="1.58951" x2="25.72" y2="1.58951" gradientUnits="userSpaceOnUse">
<stop stop-color="#00B4E6"/>
<stop offset="1" stop-color="#088CCB"/>
</linearGradient>
<clipPath id="clip0_1_508">
<rect width="25.97" height="7.42" fill="white" transform="translate(0.0150146 -0.000488281)"/>
</clipPath>
</defs>
</svg>
