<svg viewBox="0 0 10 16" fill="none" xmlns="http://www.w3.org/2000/svg">
  <path fill-rule="evenodd" clip-rule="evenodd" d="M9.25603 7.37584L2.43803 0.255843C2.36192 0.175058 2.27011 0.11069 2.16821 0.0666928C2.06632 0.0226959 1.95651 0 1.84553 0C1.73454 0 1.62473 0.0226959 1.52284 0.0666928C1.42095 0.11069 1.32913 0.175058 1.25303 0.255843L0.751025 0.779842C0.59353 0.947472 0.505854 1.16883 0.505854 1.39884C0.505854 1.62885 0.59353 1.85021 0.751025 2.01784L6.47603 7.99684L0.745025 13.9818C0.586118 14.149 0.498283 14.3712 0.500025 14.6018C0.498802 14.8318 0.5866 15.0532 0.745025 15.2198L1.24703 15.7438C1.3232 15.8245 1.41505 15.8887 1.51693 15.9327C1.61881 15.9766 1.72858 15.9992 1.83953 15.9992C1.95047 15.9992 2.06024 15.9766 2.16212 15.9327C2.264 15.8887 2.35585 15.8245 2.43203 15.7438L9.25603 8.61784C9.41457 8.45056 9.50204 8.22831 9.50003 7.99784C9.50256 7.76669 9.41505 7.54362 9.25603 7.37584Z" fill="white"/>
</svg>
