<svg width="20" height="18" viewBox="0 0 20 18" fill="none" xmlns="http://www.w3.org/2000/svg">
  <g clip-path="url(#clip0_1_592)">
    <g clip-path="url(#clip1_1_592)">
      <path fill-rule="evenodd" clip-rule="evenodd" d="M16.9879 2.91578C16.0931 1.93157 14.93 1.39473 13.5879 1.39473C12.6036 1.39473 11.7089 1.66315 10.9036 2.28947C10.5457 2.55789 10.0984 3.00526 9.82996 3.45262C9.47206 3.00526 9.11417 2.64736 8.75627 2.28947C7.95101 1.66315 7.05627 1.39473 6.07206 1.39473C4.72996 1.39473 3.5668 1.93157 2.67206 2.91578C1.77732 3.81052 1.32996 5.15262 1.32996 6.49473C1.32996 7.92631 1.8668 9.26841 3.02996 10.7C4.10364 11.9526 5.53522 13.2053 7.23522 14.7263C7.86153 15.1737 8.48785 15.7105 9.20364 16.3368C9.38259 16.5158 9.65101 16.6053 9.82996 16.6053C10.0984 16.6053 10.2773 16.5158 10.4563 16.3368C11.1721 15.7105 11.7984 15.1737 12.4247 14.6368C14.1247 13.2053 15.6457 11.8632 16.63 10.6105C17.7931 9.17894 18.33 7.92631 18.33 6.40526C18.33 5.15262 17.8826 3.81052 16.9879 2.91578Z" stroke="white" stroke-width="1.78947"/>
    </g>
  </g>
  <defs>
    <clipPath id="clip0_1_592">
      <rect width="19" height="17" fill="white" transform="translate(0.329956 0.5)"/>
    </clipPath>
    <clipPath id="clip1_1_592">
      <rect width="19" height="17" fill="white" transform="translate(0.329956 0.5)"/>
    </clipPath>
  </defs>
</svg>
