<svg xml:space="preserve" style="enable-background:new 0 0 491.858 491.858" viewBox="0 0 491.858 491.858"><path d="M233.632 217.239c0 9.055-7.339 16.395-16.395 16.395H16.395C7.339 233.635 0 226.294 0 217.239V16.396C0 7.341 7.339.001 16.395.001h200.842c9.056 0 16.395 7.34 16.395 16.395v200.843zM491.858 217.239c0 9.055-7.339 16.395-16.395 16.395H274.62c-9.056 0-16.395-7.34-16.395-16.395V16.396c0-9.055 7.339-16.395 16.395-16.395h200.842c9.056 0 16.395 7.34 16.395 16.395v200.843h.001zM233.632 475.462c0 9.055-7.339 16.395-16.395 16.395H16.395C7.339 491.858 0 484.517 0 475.462V274.619c0-9.055 7.339-16.395 16.395-16.395h200.842c9.056 0 16.395 7.34 16.395 16.395v200.843zM491.858 475.462c0 9.055-7.339 16.395-16.395 16.395H274.62c-9.056 0-16.395-7.34-16.395-16.395V274.619c0-9.055 7.339-16.395 16.395-16.395h200.842c9.056 0 16.395 7.34 16.395 16.395v200.843h.001z"/></svg>