<svg width="21" height="20" viewBox="0 0 21 20" fill="none" xmlns="http://www.w3.org/2000/svg">
  <path fill-rule="evenodd" clip-rule="evenodd" d="M10.8298 0C8.8874 0.00409262 6.98802 0.57238 5.36257 1.63578C3.73711 2.69918 2.45559 4.21188 1.67379 5.99C0.893193 7.76791 0.646976 9.73459 0.965186 11.6501C1.2834 13.5655 2.15227 15.347 3.46579 16.777C4.40418 17.7936 5.54295 18.6048 6.81035 19.1595C8.07776 19.7142 9.44632 20.0004 10.8298 20C12.2132 19.9999 13.5816 19.7135 14.8489 19.1588C16.1163 18.6041 17.2551 17.7932 18.1938 16.777C19.1758 15.7075 19.9132 14.437 20.3549 13.0539C20.7967 11.6707 20.9321 10.208 20.7518 8.7673C20.5714 7.32657 20.0798 5.94234 19.3108 4.71071C18.5418 3.47908 17.5141 2.42956 16.2988 1.635C14.6727 0.5716 12.7727 0.00357489 10.8298 0ZM10.8298 18.019C8.75475 18.0158 6.76177 17.2082 5.26979 15.766C5.72268 14.6638 6.49314 13.7212 7.4832 13.0581C8.47326 12.3949 9.63817 12.0413 10.8298 12.042C12.0212 12.0423 13.1856 12.3964 14.1755 13.0594C15.1653 13.7224 15.936 14.6644 16.3898 15.766C14.8979 17.2084 12.905 18.0164 10.8298 18.02V18.019ZM8.82579 8.009C8.82529 7.71257 8.89069 7.41974 9.01725 7.15169C9.14381 6.88363 9.32838 6.64707 9.55759 6.4591C9.78681 6.27114 10.0549 6.13647 10.3426 6.06485C10.6302 5.99324 10.9302 5.98645 11.2208 6.045C11.5111 6.10295 11.7849 6.22449 12.0226 6.40088C12.2603 6.57726 12.456 6.80412 12.5956 7.06515C12.7352 7.32617 12.8153 7.61488 12.83 7.91052C12.8447 8.20616 12.7938 8.50139 12.6808 8.775C12.504 9.2041 12.1837 9.5585 11.7747 9.77765C11.3656 9.9968 10.8931 10.0671 10.4379 9.97655C9.98277 9.88599 9.57317 9.64018 9.27913 9.28114C8.98509 8.92209 8.82485 8.47308 8.82579 8.009ZM17.7528 14.014C16.8572 12.4841 15.4797 11.2944 13.8358 10.631C14.3458 10.0529 14.6781 9.33986 14.7928 8.57751C14.9075 7.81515 14.7996 7.0359 14.4822 6.33336C14.1647 5.63081 13.6512 5.03484 13.0033 4.61703C12.3555 4.19921 11.6007 3.97732 10.8298 3.978C10.0587 3.97809 9.30406 4.20047 8.65617 4.61851C8.00827 5.03654 7.49464 5.63251 7.17679 6.335C6.85942 7.03732 6.75164 7.81636 6.86642 8.57846C6.9812 9.34057 7.31364 10.0533 7.82379 10.631C6.17986 11.2943 4.8023 12.4841 3.90679 14.014C3.19349 12.8001 2.81655 11.418 2.81479 10.01C2.81479 7.886 3.65879 5.85 5.16179 4.348C6.66546 2.84555 8.70414 2.00158 10.8298 2.00158C12.9554 2.00158 14.9941 2.84555 16.4978 4.348C17.2418 5.0913 17.832 5.97393 18.2347 6.94545C18.6374 7.91696 18.8447 8.95832 18.8448 10.01C18.8432 11.4183 18.4663 12.8008 17.7528 14.015V14.014Z" fill="white"/>
</svg>
