<svg width="9" height="9" viewBox="0 0 21 22" xmlns="http://www.w3.org/2000/svg">
<path fill-rule="evenodd" clip-rule="evenodd" d="M11.319 16.6409L20.664 6.85163C20.8818 6.62195 21.0023 6.31685 21 6.00032C21 5.67724 20.8805 5.37678 20.664 5.14901L19.9759 4.42855C19.8716 4.3178 19.7459 4.22955 19.6063 4.16922C19.4667 4.1089 19.3162 4.07778 19.1641 4.07778C19.0121 4.07778 18.8616 4.1089 18.722 4.16922C18.5824 4.22955 18.4566 4.3178 18.3524 4.42855L10.5049 12.6492L2.64764 4.42047C2.54342 4.30972 2.41764 4.22147 2.27804 4.16115C2.13845 4.10082 1.98798 4.0697 1.83591 4.0697C1.68383 4.0697 1.53336 4.10082 1.39377 4.16115C1.25417 4.22147 1.12839 4.30972 1.02417 4.42047L0.336021 5.14093C0.118582 5.3702 -0.00180907 5.67465 2.05525e-05 5.99063C2.05525e-05 6.31209 0.119559 6.61416 0.336021 6.84032L9.6891 16.6392C9.79353 16.7511 9.91983 16.8402 10.0602 16.9012C10.2005 16.9621 10.3519 16.9936 10.5049 16.9936C10.6579 16.9936 10.8092 16.9621 10.9496 16.9012C11.0899 16.8402 11.2162 16.7511 11.3206 16.6392L11.319 16.6409Z" />
</svg>
